<svg width="30" height="30" viewBox="0 0 30 30" fill="none" xmlns="http://www.w3.org/2000/svg">
<g clip-path="url(#clip0)">
<path d="M-0.0499268 0.016861V30.1319L30.0499 30.1818L30.0998 0.016861H-0.0499268ZM22.5145 11.4815V13.5096C21.5581 13.5099 20.6288 13.3226 19.7525 12.9528C19.189 12.7149 18.664 12.4083 18.1838 12.038L18.1982 18.2806C18.1922 19.6863 17.6361 21.0071 16.6296 22.0019C15.8105 22.8117 14.7725 23.3266 13.6475 23.4933C13.3831 23.5324 13.1141 23.5526 12.842 23.5526C11.6378 23.5526 10.4943 23.1624 9.5591 22.4426C9.38304 22.3071 9.21478 22.1601 9.0545 22.0019C7.96364 20.9238 7.40114 19.4625 7.49583 17.9253C7.56813 16.7551 8.03659 15.6391 8.81758 14.7645C9.85087 13.607 11.2964 12.9645 12.842 12.9645C13.1141 12.9645 13.3831 12.9849 13.6475 13.0241V13.7739V15.86C13.3969 15.7773 13.1292 15.7318 12.8504 15.7318C11.4383 15.7318 10.2959 16.8839 10.317 18.297C10.3304 19.2011 10.8243 19.9915 11.5527 20.4272C11.8951 20.6319 12.2889 20.7587 12.7092 20.7819C13.0385 20.7999 13.3547 20.7541 13.6475 20.6574C14.6564 20.3241 15.3842 19.3765 15.3842 18.2589L15.3875 14.0784V6.44646H18.1805C18.1832 6.7232 18.2113 6.99326 18.2635 7.25488C18.4743 8.31396 19.0712 9.2328 19.9022 9.85929C20.6266 10.4057 21.5287 10.7296 22.5065 10.7296C22.5071 10.7296 22.5152 10.7296 22.5146 10.7289V11.4815H22.5145Z" fill="#5C5C5C"/>
</g>
<defs>
<clipPath id="clip0">
<rect width="30" height="30" fill="white"/>
</clipPath>
</defs>
</svg>
