<svg width="30" height="30" viewBox="0 0 30 30" fill="none" xmlns="http://www.w3.org/2000/svg">
<path d="M0 0V30H30V0H0ZM24.0625 21.245H21.3963C19.89 21.245 19.6338 20.3863 18.3938 19.1463C17.2725 18.025 16.6512 18.885 16.6762 20.4813C16.6837 20.905 16.475 21.245 15.9687 21.245C14.3887 21.245 12.1187 21.4675 9.82125 18.9875C7.4675 16.4462 5 11.3488 5 10.8463C5 10.55 5.245 10.4163 5.655 10.4163H8.3675C9.085 10.4163 9.14625 10.7713 9.34625 11.2275C10.18 13.1288 12.1775 16.945 12.7087 14.815C13.0137 13.5925 13.1387 10.7587 11.83 10.515C11.0875 10.3775 12.395 9.5825 14.29 9.5825C14.7613 9.5825 15.2725 9.63375 15.7963 9.75375C16.7575 9.9775 16.76 10.4075 16.7475 11.0363C16.6987 13.415 16.4112 15.0163 17.0387 15.42C17.6375 15.8075 19.2125 13.2738 20.0425 11.3188C20.2713 10.7775 20.3175 10.4163 20.9612 10.4163H24.28C26.0162 10.4163 24.0525 12.9125 22.5513 14.8625C21.3413 16.4313 21.4063 16.4625 22.8113 17.7675C23.8138 18.6975 24.9988 19.9675 24.9988 20.6875C25 21.0275 24.735 21.245 24.0625 21.245V21.245Z" fill="#5C5C5C"/>
</svg>
