<svg width="25" height="25" viewBox="0 0 25 25" fill="none" xmlns="http://www.w3.org/2000/svg">
<path d="M21.875 3.125C21.875 1.39896 20.476 0 18.75 0C17.024 0 15.625 1.39896 15.625 3.125C15.625 4.50312 16.5219 5.65937 17.7604 6.075C17.9354 10.549 15.6552 11.0375 12.5542 11.6906C10.774 12.0656 8.76042 12.4979 7.29167 13.8625V6.05833C8.50312 5.62812 9.375 4.48437 9.375 3.125C9.375 1.39896 7.97604 0 6.25 0C4.52396 0 3.125 1.39896 3.125 3.125C3.125 4.48437 3.99687 5.62812 5.20833 6.05833V18.9406C3.99687 19.3719 3.125 20.5156 3.125 21.875C3.125 23.601 4.52396 25 6.25 25C7.97604 25 9.375 23.601 9.375 21.875C9.375 20.526 8.51667 19.3875 7.31979 18.95C7.60104 14.8646 9.99687 14.3583 12.9833 13.7292C16.1479 13.0625 20.0396 12.2271 19.8365 6.04479C21.025 5.60208 21.875 4.46771 21.875 3.125ZM4.375 3.125C4.375 2.09062 5.21562 1.25 6.25 1.25C7.28437 1.25 8.125 2.09062 8.125 3.125C8.125 4.15937 7.28437 5 6.25 5C5.21562 5 4.375 4.15937 4.375 3.125ZM8.125 21.875C8.125 22.9094 7.28437 23.75 6.25 23.75C5.21562 23.75 4.375 22.9094 4.375 21.875C4.375 20.8406 5.21562 20 6.25 20C7.28437 20 8.125 20.8406 8.125 21.875Z" fill="#E8BA29"/>
</svg>
