<svg width="30" height="30" viewBox="0 0 30 30" fill="none" xmlns="http://www.w3.org/2000/svg">
<path fill-rule="evenodd" clip-rule="evenodd" d="M30 30H0V0H30V30ZM20.32 23.565C20.5888 23.7562 20.9337 23.8037 21.2425 23.6862C21.55 23.57 21.7775 23.3062 21.8462 22.9862C22.57 19.5838 24.3275 10.9687 24.9863 7.87375C25.035 7.64 24.9525 7.3975 24.77 7.24125C24.5862 7.08625 24.3313 7.04125 24.105 7.125C20.6113 8.4175 9.85 12.455 5.45125 14.0838C5.1725 14.1863 4.99125 14.455 5 14.75C5.01 15.0438 5.20875 15.3 5.49375 15.3863C7.46625 15.975 10.0563 16.7963 10.0563 16.7963C10.0563 16.7963 11.265 20.4513 11.8963 22.3088C11.975 22.5425 12.1587 22.7263 12.3987 22.7888C12.64 22.8513 12.895 22.7863 13.075 22.6163C14.0888 21.66 15.655 20.1813 15.655 20.1813C15.655 20.1813 18.6313 22.3637 20.32 23.565V23.565ZM11.145 16.335L12.5437 20.95L12.855 18.0275C12.855 18.0275 18.26 13.1525 21.3425 10.3725C21.4325 10.2913 21.445 10.155 21.37 10.0587C21.295 9.9625 21.1587 9.94 21.0562 10.005C17.485 12.2862 11.145 16.335 11.145 16.335V16.335Z" fill="#5C5C5C"/>
</svg>
